<?xml version="1.0" standalone="no"?>
<!DOCTYPE svg PUBLIC "-//W3C//DTD SVG 20010904//EN"
 "http://www.w3.org/TR/2001/REC-SVG-20010904/DTD/svg10.dtd">
<svg version="1.0" xmlns="http://www.w3.org/2000/svg"
 width="2048.000000pt" height="2048.000000pt" viewBox="0 0 2048.000000 2048.000000"
 preserveAspectRatio="xMidYMid meet">

<g transform="translate(0.000000,2048.000000) scale(0.100000,-0.100000)"
fill="#000000" stroke="none">
<path d="M10005 19833 c-1512 -35 -3031 -441 -4350 -1162 -1501 -821 -2767
-2035 -3642 -3491 -745 -1241 -1196 -2617 -1327 -4050 -53 -573 -53 -1207 0
-1780 131 -1430 584 -2813 1327 -4050 442 -736 978 -1402 1622 -2017 1179
-1125 2659 -1945 4230 -2341 1547 -391 3148 -396 4688 -16 1105 273 2195 764
3122 1406 1344 931 2404 2145 3135 3593 570 1129 903 2328 1000 3605 31 409
31 1011 0 1420 -115 1511 -569 2942 -1343 4230 -586 974 -1367 1865 -2257
2572 -1497 1189 -3293 1899 -5195 2053 -202 16 -700 36 -825 33 -41 -1 -124
-3 -185 -5z m5836 -4979 c613 -630 1115 -1150 1117 -1154 4 -11 -8934 -9214
-8953 -9218 -14 -3 -4488 4595 -4483 4609 4 12 2239 2289 2247 2289 4 0 506
-515 1116 -1144 611 -629 1112 -1145 1115 -1145 3 0 1515 1554 3360 3454 1845
1900 3358 3455 3361 3455 4 0 508 -516 1120 -1146z"/>
</g>
</svg>
